<?xml version="1.0" standalone="no"?><!DOCTYPE svg PUBLIC "-//W3C//DTD SVG 1.1//EN" "http://www.w3.org/Graphics/SVG/1.1/DTD/svg11.dtd"><svg t="1545479016298" class="icon" style="" viewBox="0 0 1024 1024" version="1.1" xmlns="http://www.w3.org/2000/svg" p-id="7647" xmlns:xlink="http://www.w3.org/1999/xlink" width="200" height="200"><defs><style type="text/css"></style></defs><path d="M422.44 149.08c-66.88 0-156.52 56.96-133.96 160.84-11.36-5.84-25.52 2.48-25.52 19.28s14.4 25.48 19.12 38.6c8.84 24.36 8 46.76 32 38.6 6.36 45.04 76.56 96.52 108.44 96.52s102.08-51.48 108.48-96.52c23.72 8 23.08-14.24 32-38.6 4.76-13.12 19.16-22.04 19.16-38.6s-14.16-25.2-25.72-19.28c22.56-103.88-67.08-160.84-134-160.84z" fill="#0942F0" p-id="7648"></path><path d="M417.92 527.44v-0.68H444l59.64-22.76q17.36 25.76 28.84 33.16t79.52 20.52q53.28 14.28 64 25.36l0.96 0.96H636a4 4 0 0 0-4 4v28h-120a20 20 0 0 0-20 20v257.64a10.48 10.48 0 0 0 1.72 5.68H424v0.68H140.28v-240.44c0-64.76 13.04-64.76 23.72-76q10.68-11.04 64-25.36 68-13.08 79.52-20.52t27.16-30.68L396 527.44z" fill="#0942F0" p-id="7649"></path><path d="M892 744.88V880a20 20 0 0 1-20 20h-344a20 20 0 0 1-20-20v-135.04a20 20 0 0 0 17.16 19.8l169.16 24.36a19.04 19.04 0 0 0 5.64 0l174.8-24.44a20 20 0 0 0 17.24-19.8zM735.68 672a4.4 4.4 0 0 0 0-0.72v-50.92a4 4 0 0 0-4-4h-63.44a4 4 0 0 0-4 4v50.92a4.4 4.4 0 0 0 0 0.72H652a4 4 0 0 1-4-4v-64a4 4 0 0 1 4-4h96a4 4 0 0 1 4 4v64a4 4 0 0 1-4 4z" fill="#0942F0" p-id="7650"></path><path d="M528 632h344a19.44 19.44 0 0 1 20 18.8v82.16a19.2 19.2 0 0 1-17.24 18.64L700 774.64a22.2 22.2 0 0 1-5.64 0l-169.16-22.96a19.28 19.28 0 0 1-17.16-18.64V650.8A19.44 19.44 0 0 1 528 632z" fill="#0942F0" p-id="7651"></path><path d="M676 764m8 0l32 0q8 0 8 8l0 28q0 8-8 8l-32 0q-8 0-8-8l0-28q0-8 8-8Z" fill="#47BAFF" p-id="7652"></path><path d="M385.48 523.8L420 512l25.44 27.2-9.56 20.8h-36.16l-14.24-36.2z" fill="#47BAFF" p-id="7653"></path><path d="M356.92 476.8l-22.24 30.36a70.4 70.4 0 0 0 12.44 32 178.56 178.56 0 0 0 32.88 31.6L420 512a158.88 158.88 0 0 1-36.48-15.32 123.36 123.36 0 0 1-26.6-19.88z" fill="#0421AF" p-id="7654"></path><path d="M485.4 481.2l20 25.16a70.4 70.4 0 0 1-12.44 32 180 180 0 0 1-32.96 31.64l-39.76-58a112 112 0 0 0 37-13.24c11-6.36 20.4-12.24 28.16-17.56z" fill="#0421AF" p-id="7655"></path><path d="M399.36 568L360 782.2 420 824l51.8-41.8-20.08-120.04-15.8-94.16h-36.56z" fill="#47BAFF" p-id="7656"></path></svg>